<svg width="160" height="48" viewBox="0 0 160 48" fill="none" xmlns="http://www.w3.org/2000/svg">
    <g clip-path="url(#clip0_1830_81755)">
        <path d="M38.2603 16.9514H27.3083V6.12109C33.3508 6.12109 38.2603 10.976 38.2603 16.9514Z" fill="#003684"/>
        <path d="M27.1321 33.1465H38.0841V38.5518C38.0841 41.5395 35.6392 43.9571 32.618 43.9571C29.5968 43.9571 27.152 41.5395 27.152 38.5518V33.1465H27.1321Z"
              fill="#4EC6A1"/>
        <path d="M27.1321 30.465C27.1321 24.4897 32.0416 19.6348 38.0841 19.6348V30.465H27.1321Z" fill="#003684"/>
        <path d="M19.1302 6.12109H24.5963V16.9514H19.1302C16.109 16.9514 13.6642 14.5337 13.6642 11.5461C13.6443 8.53874 16.109 6.12109 19.1302 6.12109Z"
              fill="#4EC6A1"/>
        <path d="M10.952 16.9514H0V6.12109C6.04247 6.12109 10.952 10.976 10.952 16.9514Z" fill="#359BFF"/>
        <path d="M0 30.4454V25.0401C0 22.0524 2.44481 19.6348 5.46605 19.6348C8.48728 19.6348 10.9321 22.0524 10.9321 25.0401V30.4454H0Z"
              fill="#4EC6A1"/>
        <path d="M0 33.127H10.952V43.9572C4.9095 43.9572 0 39.1023 0 33.127Z" fill="#003684"/>
        <path d="M56.4021 25.7096H61.3089V15.4258C61.3089 12.6737 62.8468 10.8632 65.3734 10.8632C67.9366 10.8632 69.438 12.6737 69.438 15.4258V25.7096H74.3447V14.6291C74.3447 8.90783 71.0491 6.51793 67.131 6.51793C64.2749 6.51793 62.3708 7.7853 61.3089 9.45099V6.88003H56.4021V25.7096Z"
              fill="#003684"/>
        <path d="M86.3112 26.0717C89.7166 26.0717 91.9137 24.225 92.3897 23.1749H92.4996V25.7096H97.4063V6.88003H92.4996V9.41478H92.3897C91.9137 8.36467 89.7166 6.51793 86.3112 6.51793C81.8805 6.51793 77.1568 9.77689 77.1568 16.2948C77.1568 22.8127 81.8805 26.0717 86.3112 26.0717ZM81.9903 16.2948C81.9903 12.7824 84.5536 10.8632 87.2999 10.8632C90.0462 10.8632 92.6094 12.7462 92.6094 16.2948C92.6094 19.8435 90.0462 21.7264 87.2999 21.7264C84.5536 21.7264 81.9903 19.8073 81.9903 16.2948Z"
              fill="#003684"/>
        <path d="M101.137 25.7096H106.044V6.88003H101.137V25.7096ZM101.137 4.27286H106.044V0H101.137V4.27286Z"
              fill="#003684"/>
        <path d="M109.791 25.7096H114.698V15.4258C114.698 12.6737 116.235 10.8632 118.762 10.8632C121.325 10.8632 122.827 12.6737 122.827 15.4258V25.7096H127.733V14.6291C127.733 8.90783 124.438 6.51793 120.52 6.51793C117.664 6.51793 115.759 7.7853 114.698 9.45099V6.88003H109.791V25.7096Z"
              fill="#003684"/>
        <path d="M131.461 25.7096H136.368V6.88003H131.461V25.7096ZM131.461 4.27286H136.368V0H131.461V4.27286Z"
              fill="#003684"/>
        <path d="M55.4949 44.4859H58.9613C62.379 44.4859 64.6411 42.1684 64.6411 38.7726C64.6411 35.3769 62.379 33.0594 58.9613 33.0594H55.4949V44.4859ZM56.8945 43.1662V34.3791H58.9125C61.6629 34.3791 63.1927 36.1333 63.1927 38.7726C63.1927 41.412 61.6629 43.1662 58.9125 43.1662H56.8945Z"
              fill="#003684"/>
        <path d="M70.177 44.6468C71.544 44.6468 72.7646 44.0996 73.5295 43.1662L72.846 42.4742C72.2276 43.134 71.3162 43.4881 70.3235 43.4881C68.696 43.4881 67.3452 42.5546 67.1337 40.8004H74.0991C74.4409 37.4851 72.195 35.9562 70.0468 35.9562C67.9148 35.9562 65.8317 37.4851 65.8317 40.3015C65.8317 43.0857 67.8986 44.6468 70.177 44.6468ZM67.1337 39.7704C67.3452 38.0162 68.6635 37.1311 70.0631 37.1311C71.4789 37.1311 72.7972 38.0484 72.8948 39.7704H67.1337Z"
              fill="#003684"/>
        <path d="M77.9147 44.6468C79.4445 44.6468 80.8604 43.8743 80.8604 42.2167C80.8604 40.8326 79.884 40.2532 78.5494 39.7382L77.8659 39.4646C76.9871 39.1106 76.6453 38.6922 76.6453 38.1611C76.6453 37.4529 77.2312 37.0667 77.9636 37.0667C78.7122 37.0667 79.2167 37.4529 79.4771 38.145L80.5675 37.8231C80.2745 36.6965 79.2655 35.9562 77.9147 35.9562C76.45 35.9562 75.2945 36.8253 75.2945 38.145C75.2945 39.0945 75.8804 39.9153 77.28 40.4785L78.0449 40.7682C79.0214 41.1706 79.5096 41.5246 79.5096 42.2167C79.5096 43.134 78.7122 43.5202 77.9147 43.5202C76.9708 43.5202 76.3036 42.957 76.0757 42.0718L74.9365 42.3776C75.1969 43.8099 76.3361 44.6468 77.9147 44.6468Z"
              fill="#003684"/>
        <path d="M82.37 44.4859H83.7371V36.1172H82.37V44.4859ZM82.37 34.3147H83.7371V33.0594H82.37V34.3147Z"
              fill="#003684"/>
        <path d="M89.7285 47.8333C91.6814 47.8333 93.9924 46.9804 93.9924 44.0191V36.1172H92.6253V37.6943H92.544C92.1534 36.8092 90.9653 35.9562 89.403 35.9562C87.3687 35.9562 85.253 37.4368 85.253 40.3015C85.253 43.1662 87.3687 44.6468 89.403 44.6468C90.9653 44.6468 92.1534 43.7938 92.544 42.9087H92.6253V44.0352C92.6253 45.9343 91.1769 46.6746 89.5169 46.6746C88.4428 46.6746 87.6291 46.3688 87.2385 46.1113V47.254C87.6453 47.5437 88.5893 47.8333 89.7285 47.8333ZM86.6201 40.3015C86.6201 38.2254 88.1336 37.1954 89.6308 37.1954C91.1444 37.1954 92.6742 38.2415 92.6742 40.3015C92.6742 42.3615 91.1444 43.4076 89.6308 43.4076C88.1336 43.4076 86.6201 42.3776 86.6201 40.3015Z"
              fill="#003684"/>
        <path d="M96.0698 44.4859H97.4369V39.7543C97.4369 38.0645 98.4947 37.1954 99.8455 37.1954C101.196 37.1954 102.205 38.0645 102.205 39.7543V44.4859H103.572V39.5612C103.572 37.0506 102.043 35.9562 100.269 35.9562C98.8039 35.9562 97.8763 36.6804 97.4369 37.4851V36.1172H96.0698V44.4859Z"
              fill="#003684"/>
        <path d="M112.441 44.6468C114.378 44.6468 116.152 43.5202 116.152 41.412C116.152 39.6578 114.964 38.8209 113.076 38.0806L112.295 37.7748C110.928 37.2437 110.44 36.6161 110.44 35.8114C110.44 34.7814 111.286 34.1698 112.393 34.1698C113.564 34.1698 114.313 34.7975 114.769 35.8275L115.843 35.2803C115.387 34.0411 114.264 32.8984 112.36 32.8984C110.488 32.8984 109.04 34.025 109.04 35.7953C109.04 37.2759 110.065 38.2093 111.758 38.8853L112.523 39.175C113.874 39.706 114.72 40.221 114.72 41.3959C114.72 42.6995 113.662 43.3593 112.441 43.3593C111.058 43.3593 110.049 42.5224 109.724 41.3315L108.568 41.8626C108.959 43.5041 110.488 44.6468 112.441 44.6468Z"
              fill="#003684"/>
        <path d="M118.771 47.5437H120.121L121.472 44.4859L125.069 36.1172H123.653L120.838 42.8121L118.022 36.1172H116.606L120.17 44.4054L118.771 47.5437Z"
              fill="#003684"/>
        <path d="M128.423 44.6468C129.953 44.6468 131.368 43.8743 131.368 42.2167C131.368 40.8326 130.392 40.2532 129.058 39.7382L128.374 39.4646C127.495 39.1106 127.153 38.6922 127.153 38.1611C127.153 37.4529 127.739 37.0667 128.472 37.0667C129.22 37.0667 129.725 37.4529 129.985 38.145L131.076 37.8231C130.783 36.6965 129.774 35.9562 128.423 35.9562C126.958 35.9562 125.803 36.8253 125.803 38.145C125.803 39.0945 126.389 39.9153 127.788 40.4785L128.553 40.7682C129.529 41.1706 130.018 41.5246 130.018 42.2167C130.018 43.134 129.22 43.5202 128.423 43.5202C127.479 43.5202 126.812 42.957 126.584 42.0718L125.445 42.3776C125.705 43.8099 126.844 44.6468 128.423 44.6468Z"
              fill="#003684"/>
        <path d="M135.339 44.5824C135.73 44.5824 136.186 44.518 136.479 44.2927V43.2145C136.169 43.3271 135.909 43.3593 135.714 43.3593C135.079 43.3593 134.819 43.0374 134.819 42.5224V37.2276H136.495V36.1172H134.819V33.9767H133.452V36.1172H132.312V37.2276H133.452V42.7799C133.452 44.0352 134.216 44.5824 135.339 44.5824Z"
              fill="#003684"/>
        <path d="M141.95 44.6468C143.317 44.6468 144.538 44.0996 145.302 43.1662L144.619 42.4742C144.001 43.134 143.089 43.4881 142.096 43.4881C140.469 43.4881 139.118 42.5546 138.907 40.8004H145.872C146.214 37.4851 143.968 35.9562 141.82 35.9562C139.688 35.9562 137.605 37.4851 137.605 40.3015C137.605 43.0857 139.672 44.6468 141.95 44.6468ZM138.907 39.7704C139.118 38.0162 140.436 37.1311 141.836 37.1311C143.252 37.1311 144.57 38.0484 144.668 39.7704H138.907Z"
              fill="#003684"/>
        <path d="M153.035 44.4859H154.402V39.6578C154.402 38.1289 155.215 37.1954 156.582 37.1954C157.933 37.1954 158.633 38.1289 158.633 39.6578V44.4859H160V39.5612C160 37.0667 158.698 35.9562 156.94 35.9562C155.378 35.9562 154.467 36.7931 154.06 37.6461C153.555 36.4873 152.579 35.9562 151.391 35.9562C150.04 35.9562 149.21 36.6483 148.803 37.4208V36.1172H147.436V44.4859H148.803V39.6578C148.803 38.1289 149.617 37.1954 150.984 37.1954C152.335 37.1954 153.035 38.1289 153.035 39.6578V44.4859Z"
              fill="#003684"/>
    </g>
    <defs>
        <clipPath id="clip0_1830_81755">
            <rect width="160" height="48" fill="white"/>
        </clipPath>
    </defs>
</svg>
