<svg width="36" height="37" viewBox="0 0 36 37" fill="none" xmlns="http://www.w3.org/2000/svg">
    <path d="M35.9221 10.3565H25.6394V0C31.3126 0 35.9221 4.64255 35.9221 10.3565Z" fill="#003684"/>
    <path d="M25.474 25.8434H35.7567V31.0122C35.7567 33.8692 33.4613 36.181 30.6247 36.181C27.7881 36.181 25.4927 33.8692 25.4927 31.0122V25.8434H25.474Z"
          fill="#4EC6A1"/>
    <path d="M25.474 23.2782C25.474 17.5642 30.0835 12.9217 35.7567 12.9217V23.2782H25.474Z" fill="#003684"/>
    <path d="M17.9611 0H23.0932V10.3565H17.9611C15.1245 10.3565 12.8291 8.04458 12.8291 5.18763C12.8105 2.31188 15.1245 0 17.9611 0Z"
          fill="#4EC6A1"/>
    <path d="M10.2827 10.3565H0V0C5.6732 0 10.2827 4.64255 10.2827 10.3565Z" fill="#359BFF"/>
    <path d="M0 23.2594V18.0905C0 15.2336 2.29541 12.9217 5.13201 12.9217C7.96861 12.9217 10.264 15.2336 10.264 18.0905V23.2594H0Z"
          fill="#4EC6A1"/>
    <path d="M0 25.8246H10.2827V36.181C4.60948 36.181 0 31.5385 0 25.8246Z" fill="#003684"/>
</svg>
