<svg width="154" height="46" viewBox="0 0 154 46" fill="none" xmlns="http://www.w3.org/2000/svg">
    <g clip-path="url(#clip0_628_101)">
        <path d="M36.8255 16.2449H26.2842V5.86584C32.1001 5.86584 36.8255 10.5185 36.8255 16.2449Z" fill="#003684"/>
        <path d="M26.1146 31.7655H36.6559V36.9456C36.6559 39.8088 34.3028 42.1257 31.3948 42.1257C28.4869 42.1257 26.1338 39.8088 26.1338 36.9456V31.7655H26.1146Z" fill="#4EC6A1"/>
        <path d="M26.1146 29.1947C26.1146 23.4683 30.84 18.8157 36.6559 18.8157V29.1947H26.1146Z" fill="#003684"/>
        <path d="M18.4129 5.86584H23.6739V16.2449H18.4129C15.5049 16.2449 13.1518 13.928 13.1518 11.0648C13.1327 8.18276 15.5049 5.86584 18.4129 5.86584Z" fill="#4EC6A1"/>
        <path d="M10.5413 16.2449H0V5.86584C5.81587 5.86584 10.5413 10.5185 10.5413 16.2449Z" fill="#359BFF"/>
        <path d="M0 29.1759V23.9958C0 21.1326 2.35313 18.8157 5.26107 18.8157C8.16901 18.8157 10.5221 21.1326 10.5221 23.9958V29.1759H0Z" fill="#4EC6A1"/>
        <path d="M0 31.7467H10.5413V42.1257C4.7254 42.1257 0 37.4731 0 31.7467Z" fill="#003684"/>
        <path d="M54.287 24.6384H59.0098V14.783C59.0098 12.1457 60.4901 10.4106 62.9219 10.4106C65.389 10.4106 66.8341 12.1457 66.8341 14.783V24.6384H71.5568V14.0196C71.5568 8.53667 68.3848 6.24635 64.6137 6.24635C61.8646 6.24635 60.0319 7.46091 59.0098 9.0572V6.59337H54.287V24.6384Z" fill="#003684"/>
        <path d="M83.0746 24.9854C86.3523 24.9854 88.467 23.2156 88.9251 22.2092H89.0309V24.6384H93.7536V6.59337H89.0309V9.0225H88.9251C88.467 8.01614 86.3523 6.24635 83.0746 6.24635C78.81 6.24635 74.2635 9.36952 74.2635 15.6159C74.2635 21.8622 78.81 24.9854 83.0746 24.9854ZM78.9157 15.6159C78.9157 12.2498 81.3828 10.4106 84.0262 10.4106C86.6695 10.4106 89.1366 12.2151 89.1366 15.6159C89.1366 19.0167 86.6695 20.8212 84.0262 20.8212C81.3828 20.8212 78.9157 18.982 78.9157 15.6159Z" fill="#003684"/>
        <path d="M97.3444 24.6384H102.067V6.59337H97.3444V24.6384ZM97.3444 4.09483H102.067V0H97.3444V4.09483Z" fill="#003684"/>
        <path d="M105.674 24.6384H110.396V14.783C110.396 12.1457 111.877 10.4106 114.309 10.4106C116.776 10.4106 118.221 12.1457 118.221 14.783V24.6384H122.943V14.0196C122.943 8.53667 119.771 6.24635 116 6.24635C113.251 6.24635 111.419 7.46091 110.396 9.0572V6.59337H105.674V24.6384Z" fill="#003684"/>
        <path d="M126.531 24.6384H131.254V6.59337H126.531V24.6384ZM126.531 4.09483H131.254V0H126.531V4.09483Z" fill="#003684"/>
        <path d="M53.4138 42.632H56.7503C60.0398 42.632 62.2171 40.411 62.2171 37.1568C62.2171 33.9025 60.0398 31.6816 56.7503 31.6816H53.4138V42.632ZM54.7609 41.3673V32.9463H56.7033C59.3505 32.9463 60.823 34.6274 60.823 37.1568C60.823 39.6862 59.3505 41.3673 56.7033 41.3673H54.7609Z" fill="#003684"/>
        <path d="M67.5454 42.7862C68.8611 42.7862 70.036 42.2618 70.7722 41.3673L70.1143 40.7041C69.519 41.3364 68.6418 41.6757 67.6863 41.6757C66.1199 41.6757 64.8198 40.7812 64.6162 39.1001H71.3204C71.6494 35.9229 69.4877 34.4577 67.42 34.4577C65.368 34.4577 63.363 35.9229 63.363 38.622C63.363 41.2902 65.3524 42.7862 67.5454 42.7862ZM64.6162 38.113C64.8198 36.4319 66.0886 35.5836 67.4357 35.5836C68.7985 35.5836 70.0673 36.4627 70.1613 38.113H64.6162Z" fill="#003684"/>
        <path d="M74.9929 42.7862C76.4654 42.7862 77.8282 42.0459 77.8282 40.4573C77.8282 39.1309 76.8883 38.5757 75.6038 38.0822L74.9459 37.82C74.1001 37.4807 73.7711 37.0797 73.7711 36.5707C73.7711 35.8921 74.335 35.5219 75.0399 35.5219C75.7605 35.5219 76.2461 35.8921 76.4967 36.5553L77.5462 36.2468C77.2642 35.1672 76.2931 34.4577 74.9929 34.4577C73.5832 34.4577 72.471 35.2906 72.471 36.5553C72.471 37.4652 73.0349 38.2518 74.382 38.7916L75.1183 39.0692C76.0581 39.4548 76.528 39.7941 76.528 40.4573C76.528 41.3364 75.7605 41.7066 74.9929 41.7066C74.0844 41.7066 73.4422 41.1668 73.2229 40.3185L72.1264 40.6115C72.377 41.9842 73.4735 42.7862 74.9929 42.7862Z" fill="#003684"/>
        <path d="M79.2811 42.632H80.5969V34.612H79.2811V42.632ZM79.2811 32.8846H80.5969V31.6816H79.2811V32.8846Z" fill="#003684"/>
        <path d="M86.3637 45.84C88.2434 45.84 90.4677 45.0225 90.4677 42.1847V34.612H89.1519V36.1234H89.0736C88.6976 35.2752 87.5541 34.4577 86.0504 34.4577C84.0924 34.4577 82.056 35.8767 82.056 38.622C82.056 41.3673 84.0924 42.7862 86.0504 42.7862C87.5541 42.7862 88.6976 41.9688 89.0736 41.1205H89.1519V42.2001C89.1519 44.02 87.7578 44.7295 86.16 44.7295C85.1262 44.7295 84.343 44.4365 83.967 44.1897V45.2847C84.3587 45.5623 85.2672 45.84 86.3637 45.84ZM83.3718 38.622C83.3718 36.6324 84.8286 35.6453 86.2697 35.6453C87.7265 35.6453 89.1989 36.6478 89.1989 38.622C89.1989 40.5961 87.7265 41.5986 86.2697 41.5986C84.8286 41.5986 83.3718 40.6115 83.3718 38.622Z" fill="#003684"/>
        <path d="M92.4672 42.632H93.783V38.0976C93.783 36.4782 94.8012 35.6453 96.1013 35.6453C97.4014 35.6453 98.3726 36.4782 98.3726 38.0976V42.632H99.6884V37.9125C99.6884 35.5065 98.2159 34.4577 96.5086 34.4577C95.0988 34.4577 94.2059 35.1518 93.783 35.9229V34.612H92.4672V42.632Z" fill="#003684"/>
        <path d="M108.225 42.7862C110.089 42.7862 111.796 41.7066 111.796 39.6862C111.796 38.005 110.653 37.203 108.836 36.4936L108.084 36.2005C106.768 35.6916 106.298 35.0901 106.298 34.3189C106.298 33.3318 107.113 32.7458 108.178 32.7458C109.306 32.7458 110.026 33.3473 110.465 34.3343L111.499 33.81C111.06 32.6224 109.979 31.5273 108.147 31.5273C106.345 31.5273 104.951 32.607 104.951 34.3035C104.951 35.7224 105.938 36.617 107.567 37.2647L108.303 37.5423C109.603 38.0513 110.418 38.5448 110.418 39.6707C110.418 40.92 109.4 41.5523 108.225 41.5523C106.893 41.5523 105.922 40.7503 105.609 39.609L104.497 40.118C104.873 41.6912 106.345 42.7862 108.225 42.7862Z" fill="#003684"/>
        <path d="M114.317 45.5623H115.617L116.917 42.632L120.379 34.612H119.016L116.306 41.028L113.596 34.612H112.233L115.664 42.5548L114.317 45.5623Z" fill="#003684"/>
        <path d="M123.607 42.7862C125.079 42.7862 126.442 42.0459 126.442 40.4573C126.442 39.1309 125.502 38.5757 124.218 38.0822L123.56 37.82C122.714 37.4807 122.385 37.0797 122.385 36.5707C122.385 35.8921 122.949 35.5219 123.654 35.5219C124.375 35.5219 124.86 35.8921 125.111 36.5553L126.16 36.2468C125.878 35.1672 124.907 34.4577 123.607 34.4577C122.197 34.4577 121.085 35.2906 121.085 36.5553C121.085 37.4652 121.649 38.2518 122.996 38.7916L123.732 39.0692C124.672 39.4548 125.142 39.7941 125.142 40.4573C125.142 41.3364 124.375 41.7066 123.607 41.7066C122.698 41.7066 122.056 41.1668 121.837 40.3185L120.74 40.6115C120.991 41.9842 122.088 42.7862 123.607 42.7862Z" fill="#003684"/>
        <path d="M130.264 42.7245C130.64 42.7245 131.079 42.6628 131.361 42.4469V41.4135C131.063 41.5215 130.812 41.5523 130.624 41.5523C130.013 41.5523 129.763 41.2439 129.763 40.7503V35.6762H131.376V34.612H129.763V32.5607H128.447V34.612H127.351V35.6762H128.447V40.9971C128.447 42.2001 129.183 42.7245 130.264 42.7245Z" fill="#003684"/>
        <path d="M136.627 42.7862C137.943 42.7862 139.117 42.2618 139.854 41.3673L139.196 40.7041C138.601 41.3364 137.723 41.6757 136.768 41.6757C135.201 41.6757 133.901 40.7812 133.698 39.1001H140.402C140.731 35.9229 138.569 34.4577 136.502 34.4577C134.45 34.4577 132.445 35.9229 132.445 38.622C132.445 41.2902 134.434 42.7862 136.627 42.7862ZM133.698 38.113C133.901 36.4319 135.17 35.5836 136.517 35.5836C137.88 35.5836 139.149 36.4627 139.243 38.113H133.698Z" fill="#003684"/>
        <path d="M147.296 42.632H148.612V38.005C148.612 36.5398 149.395 35.6453 150.711 35.6453C152.011 35.6453 152.684 36.5398 152.684 38.005V42.632H154V37.9125C154 35.5219 152.747 34.4577 151.055 34.4577C149.551 34.4577 148.674 35.2597 148.283 36.0772C147.797 34.9667 146.857 34.4577 145.714 34.4577C144.414 34.4577 143.615 35.1209 143.223 35.8612V34.612H141.907V42.632H143.223V38.005C143.223 36.5398 144.006 35.6453 145.322 35.6453C146.622 35.6453 147.296 36.5398 147.296 38.005V42.632Z" fill="#003684"/>
    </g>
    <defs>
        <clipPath id="clip0_628_101">
            <rect width="154" height="46" fill="white"/>
        </clipPath>
    </defs>
</svg>
